# xmcd
#
# Track frame offsets:
#	150
#	25350
#	44475
#	62344
#	83057
#
# Disc length: 1408 seconds
#
# Revision: 0
# Processed by: cddbd v1.5.2PL0 Copyright (c) Steve Scherf et al.
# Submitted via: dBpowerAMP V4.0
#
DISCID=36057e05
DTITLE=Grant Sabin - Homesick EP
DYEAR=2011
DGENRE=Blues
TTITLE0=Homesick
TTITLE1=Nobody's Home
TTITLE2=My Next Home
TTITLE3=Hard Hearted
TTITLE4=2012 Blues
EXTD=
EXTT0=
EXTT1=
EXTT2=
EXTT3=
EXTT4=
PLAYORDER=
